<?xml version="1.0" encoding="UTF-8"?>
<svg id="Layer_2" data-name="Layer 2" xmlns="http://www.w3.org/2000/svg" viewBox="0 0 193.12 52.41">
  <defs>
    <style>
      .cls-1 {
        fill: #3a4921;
      }
    </style>
  </defs>
  <g id="Layer_1-2" data-name="Layer 1">
    <g id="Group_2" data-name="Group 2">
      <path id="Path_2" data-name="Path 2" class="cls-1" d="M31.9,0H5.52v.55c1.72-.1,3.21,1.21,3.31,2.93,0,.13,0,.25,0,.38v22.64c-1.3.84-3.52,2.26-4.09,2.64l-.54.37c-2.26,1.51-4.2,2.82-4.2,5.21,0,1.78.95,3.9,5.46,3.9v-.54c-3.3,0-4.91-1.1-4.91-3.35,0-2.11,1.75-3.28,3.96-4.76l.54-.37c.51-.35,2.46-1.6,3.78-2.45v7.61c.1,1.72-1.21,3.21-2.93,3.31-.13,0-.25,0-.38,0v.55h9.93v-.55c-1.72.1-3.21-1.21-3.31-2.93,0-.13,0-.25,0-.38v-8.93c1.31-.84,1.27-.78,2.98-1.77l6.84-3.92c.43-.28.92-.43,1.43-.44.88,0,1.43.72,1.43,2.1h.55v-7.28h-.56c-.04,2.04-1.12,3.92-2.87,4.97l-9.82,5.62V3.86c-.1-1.72,1.21-3.21,2.93-3.31.13,0,.25,0,.38,0h8.28c3.97,0,6.62,2.65,7.72,6.62h.55l-.1-7.17Z"/>
      <path id="Path_3" data-name="Path 3" class="cls-1" d="M76.4,24.28c0-7.39,5.02-14.35,13.52-14.35,6.07,0,11.76,3.4,11.76,11.53l-22.02-.06c-.16.95-.23,1.91-.22,2.87,0,6.73,4.25,13.24,10.48,13.24,5.3,0,10.54-2.32,11.86-9.1h.55l-.03,5.35c-2.15,2.65-6.98,4.85-12.38,4.85-8.5,0-13.52-7.01-13.52-14.35ZM98.75,20.92c0-5.44-4.15-9.88-8.84-9.88-5.63,0-9.1,4.47-10.15,9.82l18.99.06Z"/>
      <path id="Path_4" data-name="Path 4" class="cls-1" d="M27.98,24.28c0-7.92,6.42-14.35,14.35-14.35s14.35,6.42,14.35,14.35-6.42,14.34-14.34,14.35c-7.92,0-14.35-6.42-14.35-14.35ZM42.33,37.52c6.24,0,11.31-5.96,11.31-13.24s-5.08-13.24-11.31-13.24-11.31,5.96-11.31,13.24,5.07,13.24,11.31,13.24Z"/>
      <path id="Path_5" data-name="Path 5" class="cls-1" d="M57.61,38.62v-.55c1.44.09,2.67-1.01,2.76-2.44,0-.1,0-.21,0-.31V14.12c.14-1.29-.8-2.44-2.08-2.57-.23-.02-.45-.01-.68.03v-.55l4.96.02h.55v7.45c1.76-3.97,5.07-7.45,11.71-7.45v4.8h-.57c-.49-1.77-2.03-3.05-3.86-3.2-.42.01-.83.11-1.21.27-3.16,1.6-5.4,4.57-6.07,8.06v14.35c-.09,1.44,1.01,2.67,2.45,2.76.1,0,.21,0,.31,0v.55h-8.28Z"/>
      <path id="Path_6" data-name="Path 6" class="cls-1" d="M143.48,38.62v-.55c1.44.09,2.67-1.01,2.76-2.44,0-.1,0-.21,0-.31V14.12c.14-1.29-.8-2.44-2.08-2.57-.23-.02-.45-.01-.68.03v-.55l4.96.02h.55v7.45c1.77-3.97,5.07-7.45,11.71-7.45l-.02,4.8h-.55c-.49-1.77-2.03-3.04-3.86-3.2-.42.01-.83.11-1.21.27-3.16,1.6-5.4,4.57-6.07,8.06v14.35c-.09,1.44,1.01,2.67,2.45,2.76.1,0,.21,0,.31,0v.55h-8.28Z"/>
      <path id="Path_7" data-name="Path 7" class="cls-1" d="M106.73,31.45h.38c.88,4.36,6.84,6.07,9.33,6.07,4.47,0,6.84-2.65,6.84-5.68,0-7.72-16.5-5.52-16.5-14.51,0-2.98,2.92-7.39,8.72-7.39,3.97,0,5.79,1.93,6.73,1.93.44,0,.66-.33.83-1.38h.55v6.62h-.55c-.38-5.02-5.08-6.07-7.56-6.07-3.97,0-6.68,2.37-6.68,5.13,0,6.73,16.55,5.02,16.55,14.46,0,3.31-2.7,8-8.94,8-4.08,0-6.62-2.15-8.06-2.15-.61,0-1.05.39-1.27,1.6h-.38v-6.62Z"/>
      <path id="Path_8" data-name="Path 8" class="cls-1" d="M125.38,11.59v-.55c4.12,0,4.21-2.69,4.21-11.04h2.69v11.04h8v.55h-8v16c0,8,2.76,10.48,8,10.48v.55c-6.84,0-10.76-2.54-10.76-11.03V11.59h-4.14Z"/>
      <path id="Path_9" data-name="Path 9" class="cls-1" d="M187.06,11.02v.55c1.65,0,2.26.99,1.6,2.54l-9.21,20.91-5.87-13.23c.8-1.85,2.33-5.24,2.7-6.07l.11-.24c.48-1.08,1.22-2.68.42-3.65-.77-.93-2.17-.79-4.76-.79h-8.77v.55c1.68,0,3.19,1,3.86,2.54l10.98,23.78-4.58,10.43c-.96,2.13-3.07,3.5-5.41,3.53h-1.66v.55h5.9l16.88-38.29c.67-1.54,2.18-2.53,3.86-2.54v-.55h-6.07ZM176.29,12.3c.54.83.16,1.95-.31,2.99l-.11.24c-.35.79-1.73,3.83-2.54,5.7l-.83-1.87-2.11-5.26c-.66-1.54,0-2.54,1.64-2.54,2.9,0,3.74-.06,4.26.74Z"/>
    </g>
  </g>
</svg>